<?xml version="1.0" encoding="UTF-8"?>
<svg width="754px" height="132px" viewBox="0 0 754 132" version="1.1" xmlns="http://www.w3.org/2000/svg" xmlns:xlink="http://www.w3.org/1999/xlink">
    <!-- Generator: Sketch 61.2 (89653) - https://sketch.com -->
    <title>Group 2 Copy</title>
    <desc>Created with Sketch.</desc>
    <defs>
        <linearGradient x1="45.1168482%" y1="185.688175%" x2="45.1168482%" y2="14.6148907%" id="linearGradient-1">
            <stop stop-color="#FFFDF8" offset="0%"></stop>
            <stop stop-color="#FEA11C" offset="33.1943005%"></stop>
            <stop stop-color="#B83E4E" offset="68.9466451%"></stop>
            <stop stop-color="#4D1D69" offset="100%"></stop>
        </linearGradient>
        <linearGradient x1="45.1168482%" y1="185.688175%" x2="45.1168482%" y2="14.6148907%" id="linearGradient-2">
            <stop stop-color="#FFFDF8" offset="0%"></stop>
            <stop stop-color="#FEA11C" offset="33.1943005%"></stop>
            <stop stop-color="#B83E4E" offset="68.9466451%"></stop>
            <stop stop-color="#4D1D69" offset="100%"></stop>
        </linearGradient>
        <linearGradient x1="45.1168482%" y1="185.688175%" x2="45.1168482%" y2="14.6148907%" id="linearGradient-3">
            <stop stop-color="#FFFDF8" offset="0%"></stop>
            <stop stop-color="#FEA11C" offset="33.1943005%"></stop>
            <stop stop-color="#B83E4E" offset="68.9466451%"></stop>
            <stop stop-color="#4D1D69" offset="100%"></stop>
        </linearGradient>
    </defs>
    <g id="Page-1" stroke="none" stroke-width="1" fill="none" fill-rule="evenodd">
        <g id="Group-2-Copy">
            <path d="M44,15.44 C61.175438,15.44 76.0523899,25.2809891 83.2998691,39.6319809 L75.2754065,43.6433476 C69.5369182,32.485276 57.9088183,24.8527682 44.4980507,24.8527682 C25.39605,24.8527682 9.9108189,40.3379993 9.9108189,59.44 C9.9108189,78.5420007 25.39605,94.0272318 44.4980507,94.0272318 C58.1577608,94.0272318 69.9680061,86.1087313 75.5888606,74.6116562 L75.529,74.73 L83.5516897,78.7412779 C76.4010025,93.3668438 61.3768571,103.44 44,103.44 C19.699471,103.44 6.39488462e-14,83.740529 6.39488462e-14,59.44 C6.39488462e-14,35.139471 19.699471,15.44 44,15.44 Z" id="Combined-Shape-Copy-27" fill="#552068"></path>
            <path d="M120.79169,99.12 C125.458356,99.12 129.89169,97.93 134.09169,95.55 C138.29169,93.17 141.325023,90.0666667 143.19169,86.24 L143.19169,86.24 L143.47169,86.24 C143.47169,87.64 143.518356,89.4133333 143.61169,91.56 C143.705023,93.7066667 143.845023,95.6666667 144.03169,97.44 L144.03169,97.44 L153.13169,97.44 C152.945023,95.2 152.805023,92.68 152.71169,89.88 C152.618356,87.08 152.57169,84.7933333 152.57169,83.02 L152.57169,31.92 L143.05169,31.92 L143.05169,65.52 C143.05169,69.9066667 142.49169,73.71 141.37169,76.93 C140.25169,80.15 138.758356,82.81 136.89169,84.91 C135.025023,87.01 132.90169,88.5733333 130.52169,89.6 C128.14169,90.6266667 125.69169,91.14 123.17169,91.14 C119.718356,91.14 116.848356,90.58 114.56169,89.46 C112.275023,88.34 110.455023,86.7766667 109.10169,84.77 C107.748356,82.7633333 106.79169,80.36 106.23169,77.56 C105.67169,74.76 105.39169,71.6333333 105.39169,68.18 L105.39169,68.18 L105.39169,31.92 L95.8716897,31.92 L95.8716897,72.1 C95.8716897,80.22 97.9483564,86.7533333 102.10169,91.7 C106.255023,96.6466667 112.485023,99.12 120.79169,99.12 Z M191.55169,99.12 C196.87169,99.12 201.42169,98.1633333 205.20169,96.25 C208.98169,94.3366667 212.365023,91.1866667 215.35169,86.8 L215.35169,86.8 L215.63169,86.8 C215.63169,88.5733333 215.725023,90.3933333 215.91169,92.26 C216.098356,94.1266667 216.33169,95.8533333 216.61169,97.44 L216.61169,97.44 L225.15169,97.44 C224.778356,95.5733333 224.498356,93.2866667 224.31169,90.58 C224.125023,87.8733333 224.03169,85.26 224.03169,82.74 L224.03169,82.74 L224.03169,54.04 C224.03169,50.0266667 223.378356,46.5266667 222.07169,43.54 C220.765023,40.5533333 218.945023,38.08 216.61169,36.12 C214.278356,34.16 211.57169,32.69 208.49169,31.71 C205.41169,30.73 202.098356,30.24 198.55169,30.24 C192.95169,30.24 187.935023,31.1266667 183.50169,32.9 C179.068356,34.6733333 175.498356,36.9133333 172.79169,39.62 L172.79169,39.62 L178.11169,45.92 C180.445023,43.5866667 183.29169,41.72 186.65169,40.32 C190.01169,38.92 193.65169,38.22 197.57169,38.22 C203.265023,38.22 207.605023,39.62 210.59169,42.42 C213.578356,45.22 215.07169,49.4666667 215.07169,55.16 L215.07169,55.16 L215.07169,57.26 C209.098356,57.26 203.335023,57.47 197.78169,57.89 C192.228356,58.31 187.305023,59.2433333 183.01169,60.69 C178.718356,62.1366667 175.288356,64.33 172.72169,67.27 C170.155023,70.21 168.87169,74.2 168.87169,79.24 C168.87169,82.88 169.595023,85.96 171.04169,88.48 C172.488356,91 174.308356,93.0533333 176.50169,94.64 C178.695023,96.2266667 181.12169,97.37 183.78169,98.07 C186.44169,98.77 189.03169,99.12 191.55169,99.12 Z M194.07169,91.28 C192.205023,91.28 190.36169,91.07 188.54169,90.65 C186.72169,90.23 185.065023,89.53 183.57169,88.55 C182.078356,87.57 180.888356,86.2866667 180.00169,84.7 C179.115023,83.1133333 178.67169,81.1533333 178.67169,78.82 C178.67169,75.74 179.698356,73.2666667 181.75169,71.4 C183.805023,69.5333333 186.44169,68.11 189.66169,67.13 C192.88169,66.15 196.475023,65.4966667 200.44169,65.17 C204.408356,64.8433333 208.35169,64.68 212.27169,64.68 L212.27169,64.68 L215.07169,64.68 L215.07169,69.58 C215.07169,72.4733333 214.605023,75.2266667 213.67169,77.84 C212.738356,80.4533333 211.385023,82.7633333 209.61169,84.77 C207.838356,86.7766667 205.645023,88.3633333 203.03169,89.53 C200.418356,90.6966667 197.43169,91.28 194.07169,91.28 Z M254.05169,97.44 L254.05169,63.84 C254.05169,59.4533333 254.61169,55.65 255.73169,52.43 C256.85169,49.21 258.345023,46.55 260.21169,44.45 C262.078356,42.35 264.20169,40.7866667 266.58169,39.76 C268.96169,38.7333333 271.41169,38.22 273.93169,38.22 C277.385023,38.22 280.255023,38.78 282.54169,39.9 C284.828356,41.02 286.648356,42.5833333 288.00169,44.59 C289.355023,46.5966667 290.31169,49 290.87169,51.8 C291.43169,54.6 291.71169,57.7266667 291.71169,61.18 L291.71169,61.18 L291.71169,97.44 L301.23169,97.44 L301.23169,57.26 C301.23169,49.14 299.155023,42.6066667 295.00169,37.66 C290.848356,32.7133333 284.618356,30.24 276.31169,30.24 C271.645023,30.24 267.21169,31.43 263.01169,33.81 C258.81169,36.19 255.778356,39.2933333 253.91169,43.12 L253.91169,43.12 L253.63169,43.12 C253.63169,41.72 253.585023,39.9466667 253.49169,37.8 C253.398356,35.6533333 253.258356,33.6933333 253.07169,31.92 L253.07169,31.92 L243.97169,31.92 C244.158356,34.16 244.298356,36.68 244.39169,39.48 C244.485023,42.28 244.53169,44.5666667 244.53169,46.34 L244.53169,46.34 L244.53169,97.44 L254.05169,97.44 Z M340.21169,98.28 C342.358356,98.28 344.34169,98.1166667 346.16169,97.79 C347.98169,97.4633333 349.73169,96.9733333 351.41169,96.32 L351.41169,96.32 L350.99169,88.06 C349.685023,88.7133333 348.308356,89.2266667 346.86169,89.6 C345.415023,89.9733333 344.038356,90.16 342.73169,90.16 C341.33169,90.16 340.025023,89.9966667 338.81169,89.67 C337.598356,89.3433333 336.548356,88.7366667 335.66169,87.85 C334.775023,86.9633333 334.098356,85.7266667 333.63169,84.14 C333.165023,82.5533333 332.93169,80.5466667 332.93169,78.12 L332.93169,78.12 L332.93169,39.9 L351.41169,39.9 L351.41169,31.92 L332.93169,31.92 L332.93169,13.44 L323.41169,13.44 L323.41169,31.92 L309.83169,31.92 L309.83169,39.9 L323.41169,39.9 L323.41169,80.78 C323.41169,84.42 323.948356,87.36 325.02169,89.6 C326.095023,91.84 327.47169,93.6133333 329.15169,94.92 C330.83169,96.2266667 332.65169,97.1133333 334.61169,97.58 C336.57169,98.0466667 338.438356,98.28 340.21169,98.28 Z M367.15169,13.44 C368.83169,13.44 370.37169,12.81 371.77169,11.55 C373.17169,10.29 373.87169,8.68 373.87169,6.72 C373.87169,4.76 373.17169,3.15 371.77169,1.89 C370.37169,0.63 368.83169,0 367.15169,0 C365.47169,0 363.93169,0.63 362.53169,1.89 C361.13169,3.15 360.43169,4.76 360.43169,6.72 C360.43169,8.68 361.13169,10.29 362.53169,11.55 C363.93169,12.81 365.47169,13.44 367.15169,13.44 Z M371.91169,97.44 L371.91169,31.92 L362.39169,31.92 L362.39169,97.44 L371.91169,97.44 Z M423.49169,99.12 C429.185023,99.12 434.06169,98.0933333 438.12169,96.04 C442.18169,93.9866667 445.61169,91.2333333 448.41169,87.78 L448.41169,87.78 L441.27169,82.46 C439.405023,84.98 437.025023,87.0333333 434.13169,88.62 C431.238356,90.2066667 427.69169,91 423.49169,91 C419.665023,91 416.21169,90.3233333 413.13169,88.97 C410.05169,87.6166667 407.438356,85.75 405.29169,83.37 C403.145023,80.99 401.488356,78.2133333 400.32169,75.04 C399.155023,71.8666667 398.57169,68.4133333 398.57169,64.68 C398.57169,60.9466667 399.155023,57.47 400.32169,54.25 C401.488356,51.03 403.168356,48.23 405.36169,45.85 C407.555023,43.47 410.19169,41.6033333 413.27169,40.25 C416.35169,38.8966667 419.805023,38.22 423.63169,38.22 C427.178356,38.22 430.468356,39.0366667 433.50169,40.67 C436.535023,42.3033333 438.845023,44.38 440.43169,46.9 L440.43169,46.9 L447.85169,41.58 C445.05169,37.8466667 441.388356,35.0233333 436.86169,33.11 C432.335023,31.1966667 427.878356,30.24 423.49169,30.24 C418.17169,30.24 413.365023,31.1033333 409.07169,32.83 C404.778356,34.5566667 401.115023,36.96 398.08169,40.04 C395.048356,43.12 392.69169,46.76 391.01169,50.96 C389.33169,55.16 388.49169,59.7333333 388.49169,64.68 C388.49169,69.6266667 389.33169,74.2 391.01169,78.4 C392.69169,82.6 395.048356,86.24 398.08169,89.32 C401.115023,92.4 404.778356,94.8033333 409.07169,96.53 C413.365023,98.2566667 418.17169,99.12 423.49169,99.12 Z" id="uanticapps-copy-6" fill="#552068" fill-rule="nonzero"></path>
            <path d="M484.39169,99.12 C489.15169,99.12 493.398356,98.1633333 497.13169,96.25 C500.865023,94.3366667 503.57169,91.8866667 505.25169,88.9 L505.25169,88.9 L505.67169,88.9 L505.67169,97.44 L521.35169,97.44 L521.35169,56.56 C521.35169,53.2 520.908356,49.84 520.02169,46.48 C519.135023,43.12 517.57169,40.0866667 515.33169,37.38 C513.09169,34.6733333 510.035023,32.48 506.16169,30.8 C502.288356,29.12 497.365023,28.28 491.39169,28.28 C486.258356,28.28 481.195023,29.1666667 476.20169,30.94 C471.208356,32.7133333 466.798356,35.3733333 462.97169,38.92 L462.97169,38.92 L471.65169,49.14 C473.798356,46.9933333 476.505023,45.1733333 479.77169,43.68 C483.038356,42.1866667 486.445023,41.44 489.99169,41.44 C494.19169,41.44 497.808356,42.4433333 500.84169,44.45 C503.875023,46.4566667 505.39169,49.56 505.39169,53.76 L505.39169,53.76 L505.39169,55.44 C500.165023,55.44 494.82169,55.6966667 489.36169,56.21 C483.90169,56.7233333 478.93169,57.7733333 474.45169,59.36 C469.97169,60.9466667 466.308356,63.2333333 463.46169,66.22 C460.615023,69.2066667 459.19169,73.22 459.19169,78.26 C459.19169,82.18 460.008356,85.47 461.64169,88.13 C463.275023,90.79 465.328356,92.9366667 467.80169,94.57 C470.275023,96.2033333 472.98169,97.37 475.92169,98.07 C478.86169,98.77 481.685023,99.12 484.39169,99.12 Z" id="Combined-Shape-Copy-28" fill="url(#linearGradient-1)"></path>
            <path d="M638.37169,131.04 L638.37169,88.48 L638.65169,88.48 C640.798356,91.84 643.855023,94.5 647.82169,96.46 C651.788356,98.42 656.15169,99.4 660.91169,99.4 C666.045023,99.4 670.64169,98.4433333 674.70169,96.53 C678.76169,94.6166667 682.215023,92.05 685.06169,88.83 C687.908356,85.61 690.10169,81.83 691.64169,77.49 C693.18169,73.15 693.95169,68.5066667 693.95169,63.56 C693.95169,58.6133333 693.158356,53.9933333 691.57169,49.7 C689.985023,45.4066667 687.745023,41.6733333 684.85169,38.5 C681.958356,35.3266667 678.505023,32.83 674.49169,31.01 C670.478356,29.19 666.09169,28.28 661.33169,28.28 C658.25169,28.28 655.475023,28.63 653.00169,29.33 C650.528356,30.03 648.31169,30.9166667 646.35169,31.99 C644.39169,33.0633333 642.735023,34.2766667 641.38169,35.63 C640.028356,36.9833333 638.93169,38.3133333 638.09169,39.62 L638.09169,39.62 L637.67169,39.62 L637.67169,30.24 L621.57169,30.24 L621.57169,131.04 L638.37169,131.04 Z" id="Combined-Shape-Copy-29" fill="url(#linearGradient-2)"></path>
            <path d="M553.8,131.04 L553.8,88.48 L554.08,88.48 C556.226667,91.84 559.283333,94.5 563.25,96.46 C567.216667,98.42 571.58,99.4 576.34,99.4 C581.473333,99.4 586.07,98.4433333 590.13,96.53 C594.19,94.6166667 597.643333,92.05 600.49,88.83 C603.336667,85.61 605.53,81.83 607.07,77.49 C608.61,73.15 609.38,68.5066667 609.38,63.56 C609.38,58.6133333 608.586667,53.9933333 607,49.7 C605.413333,45.4066667 603.173333,41.6733333 600.28,38.5 C597.386667,35.3266667 593.933333,32.83 589.92,31.01 C585.906667,29.19 581.52,28.28 576.76,28.28 C573.68,28.28 570.903333,28.63 568.43,29.33 C565.956667,30.03 563.74,30.9166667 561.78,31.99 C559.82,33.0633333 558.163333,34.2766667 556.81,35.63 C555.456667,36.9833333 554.36,38.3133333 553.52,39.62 L553.52,39.62 L553.1,39.62 L553.1,30.24 L537,30.24 L537,131.04 L553.8,131.04 Z" id="Combined-Shape-Copy-30" fill="url(#linearGradient-2)"></path>
            <path d="M725.79169,99.4 C729.43169,99.4 732.955023,99.0033333 736.36169,98.21 C739.768356,97.4166667 742.755023,96.1333333 745.32169,94.36 C747.888356,92.5866667 749.94169,90.2766667 751.48169,87.43 C753.02169,84.5833333 753.79169,81.1066667 753.79169,77 C753.79169,73.7333333 753.138356,70.9566667 751.83169,68.67 C750.525023,66.3833333 748.82169,64.47 746.72169,62.93 C744.62169,61.39 742.288356,60.1533333 739.72169,59.22 C737.155023,58.2866667 734.61169,57.54 732.09169,56.98 C727.33169,55.86 723.715023,54.7633333 721.24169,53.69 C718.768356,52.6166667 717.53169,50.7733333 717.53169,48.16 C717.53169,45.5466667 718.65169,43.68 720.89169,42.56 C723.13169,41.44 725.605023,40.88 728.31169,40.88 C731.39169,40.88 734.238356,41.6033333 736.85169,43.05 C739.465023,44.4966667 741.518356,46.2 743.01169,48.16 L743.01169,48.16 L753.93169,38.5 C751.225023,35.0466667 747.56169,32.48 742.94169,30.8 C738.32169,29.12 733.585023,28.28 728.73169,28.28 C725.37169,28.28 722.105023,28.7 718.93169,29.54 C715.758356,30.38 712.91169,31.6633333 710.39169,33.39 C707.87169,35.1166667 705.84169,37.3333333 704.30169,40.04 C702.76169,42.7466667 701.99169,45.9666667 701.99169,49.7 C701.99169,52.8733333 702.55169,55.5333333 703.67169,57.68 C704.79169,59.8266667 706.285023,61.6233333 708.15169,63.07 C710.018356,64.5166667 712.14169,65.6833333 714.52169,66.57 C716.90169,67.4566667 719.35169,68.18 721.87169,68.74 C727.005023,69.9533333 730.855023,71.1666667 733.42169,72.38 C735.988356,73.5933333 737.27169,75.6 737.27169,78.4 C737.27169,79.8933333 736.945023,81.1533333 736.29169,82.18 C735.638356,83.2066667 734.775023,84.0233333 733.70169,84.63 C732.628356,85.2366667 731.46169,85.68 730.20169,85.96 C728.94169,86.24 727.705023,86.38 726.49169,86.38 C722.85169,86.38 719.538356,85.5866667 716.55169,84 C713.565023,82.4133333 711.138356,80.4066667 709.27169,77.98 L709.27169,77.98 L698.21169,88.34 C701.478356,91.8866667 705.585023,94.6166667 710.53169,96.53 C715.478356,98.4433333 720.565023,99.4 725.79169,99.4 Z" id="Path-Copy-11" fill="url(#linearGradient-3)"></path>
            <path d="M487.75169,86.38 C486.35169,86.38 484.95169,86.24 483.55169,85.96 C482.15169,85.68 480.89169,85.2133333 479.77169,84.56 C478.65169,83.9066667 477.74169,83.0433333 477.04169,81.97 C476.34169,80.8966667 475.99169,79.5666667 475.99169,77.98 C475.99169,75.46 476.83169,73.4766667 478.51169,72.03 C480.19169,70.5833333 482.29169,69.4633333 484.81169,68.67 C487.33169,67.8766667 490.085023,67.3633333 493.07169,67.13 C496.058356,66.8966667 498.905023,66.78 501.61169,66.78 L501.61169,66.78 L505.39169,66.78 L505.39169,69.16 C505.39169,74.48 503.898356,78.68 500.91169,81.76 C497.925023,84.84 493.538356,86.38 487.75169,86.38 Z" id="Path-Copy-12" fill="#FFFFFF"></path>
            <path d="M657.55169,85.4 C654.47169,85.4 651.718356,84.77 649.29169,83.51 C646.865023,82.25 644.788356,80.5933333 643.06169,78.54 C641.335023,76.4866667 640.028356,74.1766667 639.14169,71.61 C638.255023,69.0433333 637.81169,66.4533333 637.81169,63.84 C637.81169,61.2266667 638.255023,58.6133333 639.14169,56 C640.028356,53.3866667 641.335023,51.0533333 643.06169,49 C644.788356,46.9466667 646.865023,45.2666667 649.29169,43.96 C651.718356,42.6533333 654.47169,42 657.55169,42 C660.818356,42 663.665023,42.63 666.09169,43.89 C668.518356,45.15 670.525023,46.8066667 672.11169,48.86 C673.698356,50.9133333 674.888356,53.2233333 675.68169,55.79 C676.475023,58.3566667 676.87169,60.9466667 676.87169,63.56 C676.87169,66.1733333 676.475023,68.7866667 675.68169,71.4 C674.888356,74.0133333 673.698356,76.3466667 672.11169,78.4 C670.525023,80.4533333 668.518356,82.1333333 666.09169,83.44 C663.665023,84.7466667 660.818356,85.4 657.55169,85.4 Z" id="Path-Copy-13" fill="#FFFFFF"></path>
            <path d="M572.98,85.4 C569.9,85.4 567.146667,84.77 564.72,83.51 C562.293333,82.25 560.216667,80.5933333 558.49,78.54 C556.763333,76.4866667 555.456667,74.1766667 554.57,71.61 C553.683333,69.0433333 553.24,66.4533333 553.24,63.84 C553.24,61.2266667 553.683333,58.6133333 554.57,56 C555.456667,53.3866667 556.763333,51.0533333 558.49,49 C560.216667,46.9466667 562.293333,45.2666667 564.72,43.96 C567.146667,42.6533333 569.9,42 572.98,42 C576.246667,42 579.093333,42.63 581.52,43.89 C583.946667,45.15 585.953333,46.8066667 587.54,48.86 C589.126667,50.9133333 590.316667,53.2233333 591.11,55.79 C591.903333,58.3566667 592.3,60.9466667 592.3,63.56 C592.3,66.1733333 591.903333,68.7866667 591.11,71.4 C590.316667,74.0133333 589.126667,76.3466667 587.54,78.4 C585.953333,80.4533333 583.946667,82.1333333 581.52,83.44 C579.093333,84.7466667 576.246667,85.4 572.98,85.4 Z" id="Path-Copy-14" fill="#FFFFFF"></path>
        </g>
    </g>
</svg>